<?xml version="1.0" encoding="UTF-8" standalone="no"?>
<svg
   xmlns:dc="http://purl.org/dc/elements/1.1/"
   xmlns:cc="http://creativecommons.org/ns#"
   xmlns:rdf="http://www.w3.org/1999/02/22-rdf-syntax-ns#"
   xmlns:svg="http://www.w3.org/2000/svg"
   xmlns="http://www.w3.org/2000/svg"
   xmlns:sodipodi="http://sodipodi.sourceforge.net/DTD/sodipodi-0.dtd"
   xmlns:inkscape="http://www.inkscape.org/namespaces/inkscape"
   width="1200"
   height="400"
   viewBox="0 0 1200 400"
   version="1.1">
  <rect width="1200" height="400" fill="white"/>
  <path d="m50,50 100,0 m20,0 100,0" stroke="black" stroke-width="3"/>
  <g id="text" fill="black">
      <path
         d="m 175.32715,174.55322 -1.11084,4.81934 -11.87744,0 -1.05957,4.5459 11.02295,0 -1.12793,4.83642 -11.02295,0 -1.48682,6.42578 11.87744,0 -1.09375,4.81934 -18.43994,0 5.87891,-25.44678 18.43994,0"
          
         id="path3098" />
      <path
         d="M 198.17627,180.80811 186.33301,200 l -7.00684,0 -2.90527,-19.19189 6.34033,0 1.40137,13.21044 7.3999,-13.21044 6.61377,0"
         fill = "red"
         id="path3100" />
      <path
         d="m 212.83936,187.93457 c 0.0342,-0.20507 0.057,-0.39305 0.0684,-0.56396 0.0228,-0.17089 0.0342,-0.34749 0.0342,-0.52979 -1e-5,-0.90005 -0.27915,-1.58934 -0.8374,-2.06787 -0.55828,-0.4785 -1.3615,-0.71776 -2.40967,-0.71777 -1.26466,1e-5 -2.32992,0.34181 -3.1958,1.02539 -0.8545,0.6836 -1.50391,1.63494 -1.94824,2.854 l 8.28858,0 m -4.69971,12.57813 c -3.26987,-1e-5 -5.79346,-0.72347 -7.5708,-2.17041 -1.77735,-1.44694 -2.66602,-3.44645 -2.66602,-5.99854 0,-1.74315 0.29053,-3.3439 0.87158,-4.80225 0.58106,-1.45832 1.41846,-2.74005 2.51221,-3.84521 1.04817,-1.07095 2.35839,-1.91974 3.93067,-2.54639 1.57225,-0.62661 3.29832,-0.93992 5.17822,-0.93994 2.85968,2e-5 5.013,0.58107 6.45996,1.74316 1.45831,1.15074 2.18748,2.85402 2.1875,5.10987 -2e-5,0.77475 -0.0798,1.5324 -0.23926,2.27295 -0.14813,0.74057 -0.34751,1.47543 -0.59814,2.20459 l -14.25293,0 c -1e-5,0.0684 -1e-5,0.13672 0,0.20508 -1e-5,0.057 -1e-5,0.11963 0,0.18798 -1e-5,1.33302 0.46711,2.3755 1.40136,3.12745 0.93424,0.75195 2.36409,1.12793 4.28955,1.12792 1.34439,1e-5 2.61474,-0.22786 3.81104,-0.68359 1.20766,-0.45572 2.25584,-0.96272 3.14453,-1.521 l 0.68359,0 -1.14501,4.93897 c -1.19631,0.52409 -2.45526,0.91715 -3.77686,1.1792 -1.32163,0.27344 -2.72869,0.41015 -4.22119,0.41016"
          
         id="path3102" />
      <path
         d="m 243.02002,185.14893 c -2e-5,0.34181 -0.0228,0.71209 -0.0684,1.11084 -0.0456,0.39877 -0.11965,0.81462 -0.22217,1.24755 L 239.8584,200 l -6.2207,0 2.1875,-9.51904 c 0.15948,-0.70637 0.28481,-1.31021 0.37597,-1.81153 0.0911,-0.50129 0.1367,-0.96841 0.13672,-1.40136 -2e-5,-0.74055 -0.188,-1.28173 -0.56396,-1.62354 -0.376,-0.34178 -1.06529,-0.51268 -2.06788,-0.51269 -0.48992,10e-6 -1.05388,0.10825 -1.69189,0.3247 -0.63803,0.2051 -1.3558,0.51841 -2.15332,0.93994 L 226.7334,200 l -6.18653,0 4.42627,-19.19189 6.18653,0 -0.49561,2.11914 c 1.26464,-0.83169 2.41535,-1.48111 3.45215,-1.94825 1.04816,-0.4671 2.19888,-0.70066 3.45215,-0.70068 1.72036,2e-5 3.05906,0.41587 4.01611,1.24756 0.95701,0.83172 1.43553,2.0394 1.43555,3.62305"
          
         id="path3104" />
      <path
         d="m 264.82666,200.37598 c -2.13054,0 -3.65153,-0.3475 -4.56299,-1.04248 -0.91146,-0.70638 -1.36719,-1.74886 -1.36719,-3.12745 0,-0.36457 0.0285,-0.71776 0.0854,-1.05957 0.057,-0.34179 0.13102,-0.74055 0.22217,-1.19628 l 2.08496,-9.0918 -2.52929,0 0.93994,-4.05029 2.52929,0 1.26465,-5.48584 6.16944,0 -1.26465,5.48584 5.77636,0 -0.93994,4.05029 -5.77636,0 -1.58936,6.92139 c -0.11394,0.47852 -0.22218,0.96273 -0.32471,1.45263 -0.10254,0.47852 -0.15381,0.88868 -0.15381,1.23047 0,0.6836 0.18798,1.16211 0.56397,1.43555 0.38736,0.26205 0.97981,0.39307 1.77734,0.39306 0.319,10e-6 0.73486,-0.057 1.24756,-0.17089 0.52408,-0.12533 0.93993,-0.26204 1.24756,-0.41016 l 0.5127,0 -0.95704,4.11865 c -0.69499,0.1709 -1.42986,0.30192 -2.20459,0.39307 -0.76335,0.10254 -1.68051,0.15381 -2.75146,0.15381"
          
         id="path3106" />
      <path
         d="m 295.87891,185.14893 c -3e-5,0.27345 -0.0228,0.62664 -0.0684,1.05957 -0.0456,0.43295 -0.11966,0.86589 -0.22217,1.29882 L 292.7002,200 l -6.22071,0 2.20459,-9.51904 c 0.15949,-0.72916 0.28482,-1.34439 0.37598,-1.84571 0.0911,-0.50129 0.1367,-0.95132 0.13672,-1.35009 -2e-5,-0.76334 -0.1937,-1.31021 -0.58106,-1.64063 -0.37599,-0.34178 -1.06528,-0.51268 -2.06787,-0.51269 -0.48992,10e-6 -1.05388,0.10825 -1.69189,0.3247 -0.63804,0.2051 -1.35011,0.51841 -2.13623,0.93994 L 279.5752,200 l -6.18653,0 6.13526,-26.5918 6.18652,0 -2.1875,9.51905 c 1.25324,-0.83169 2.40396,-1.48111 3.45215,-1.94825 1.04816,-0.4671 2.19887,-0.70066 3.45215,-0.70068 1.74314,2e-5 3.08754,0.42727 4.0332,1.28174 0.94561,0.84312 1.41843,2.0394 1.41846,3.58887"
          
         id="path3108" />
      <path
         d="m 320.47119,187.83203 c -2e-5,1.80014 -0.30194,3.48634 -0.90576,5.05859 -0.60386,1.57228 -1.45266,2.92237 -2.54639,4.0503 -1.13934,1.1735 -2.46095,2.07926 -3.96484,2.71728 -1.50392,0.62663 -3.25848,0.93994 -5.26367,0.93994 -2.85971,0 -5.0529,-0.68359 -6.57959,-2.05078 -1.5267,-1.36718 -2.29004,-3.25846 -2.29004,-5.67382 0,-1.70898 0.28483,-3.33251 0.85449,-4.87061 0.56966,-1.53807 1.41276,-2.89387 2.5293,-4.06738 1.08235,-1.1507 2.40966,-2.05646 3.98193,-2.71729 1.58365,-0.67218 3.3553,-1.00828 5.31494,-1.0083 2.87108,2e-5 5.06427,0.67792 6.57959,2.03369 1.52667,1.34442 2.29002,3.20721 2.29004,5.58838 m -7.99805,6.28906 c 0.52408,-0.79752 0.91714,-1.6691 1.1792,-2.61474 0.27342,-0.94563 0.41014,-2.09635 0.41016,-3.45215 -2e-5,-1.17349 -0.25636,-2.07355 -0.76904,-2.7002 -0.51271,-0.638 -1.32733,-0.95701 -2.44385,-0.95703 -0.8659,2e-5 -1.62924,0.21079 -2.29004,0.63233 -0.64942,0.42156 -1.22478,1.0197 -1.72607,1.79443 -0.46714,0.71779 -0.83741,1.60646 -1.11084,2.66602 -0.26206,1.05958 -0.39308,2.14763 -0.39307,3.26416 -10e-6,1.31022 0.29052,2.25016 0.87158,2.81982 0.58105,0.55827 1.37857,0.83741 2.39258,0.8374 0.74055,10e-6 1.45262,-0.19937 2.13623,-0.59814 0.68358,-0.41015 1.26463,-0.97412 1.74316,-1.6919"
          
         id="path3110" />
      <path
         d="M 345.91797,180.80811 341.47461,200 l -6.18652,0 0.4956,-2.11914 c -0.61525,0.39876 -1.21909,0.77474 -1.81152,1.12793 -0.58107,0.3418 -1.13364,0.61523 -1.65772,0.82031 -0.66081,0.27344 -1.26465,0.45573 -1.81152,0.54688 -0.54688,0.10254 -1.08806,0.1538 -1.62354,0.15381 -1.6862,-1e-5 -3.01921,-0.40446 -3.99902,-1.21338 -0.96843,-0.80892 -1.45264,-2.00521 -1.45264,-3.58887 0,-0.43294 0.0228,-0.8317 0.0684,-1.19629 0.0456,-0.37597 0.11963,-0.78613 0.22217,-1.23047 l 2.88819,-12.49267 6.2207,0 -2.20459,9.51904 c -0.17091,0.72917 -0.30193,1.3558 -0.39307,1.87988 -0.0798,0.5241 -0.11964,0.96843 -0.11963,1.33301 -1e-5,0.75196 0.18229,1.29883 0.54688,1.64062 0.36457,0.33041 1.05386,0.49561 2.06787,0.49561 0.50129,0 1.07665,-0.10823 1.72607,-0.32471 0.6608,-0.21646 1.37287,-0.52978 2.13623,-0.93994 l 3.14454,-13.60351 6.18652,0"
          
         id="path3112" />
      <path
         d="m 370.40771,180.80811 -3.8623,16.9873 c -0.42157,1.82292 -1.01971,3.33822 -1.79443,4.5459 -0.77476,1.20768 -1.7147,2.1704 -2.81983,2.88818 -1.13933,0.74056 -2.3755,1.25895 -3.70849,1.55518 -1.33302,0.29621 -2.83123,0.44433 -4.49463,0.44433 -1.37859,0 -2.7002,-0.0855 -3.96485,-0.25634 -1.26465,-0.15952 -2.32991,-0.3475 -3.1958,-0.56397 l 0.93994,-4.7168 0.75196,0 c 0.94563,0.36459 1.90266,0.65511 2.87109,0.87159 0.96842,0.21647 1.82861,0.3247 2.58057,0.3247 1.08235,0 2.02229,-0.10254 2.81982,-0.30761 0.79752,-0.19369 1.42414,-0.47852 1.87988,-0.8545 0.4899,-0.39876 0.87727,-0.88867 1.16211,-1.46972 0.29621,-0.58106 0.53547,-1.29313 0.71778,-2.13623 l 0.0855,-0.35889 c -0.88869,0.60384 -1.77166,1.08236 -2.64893,1.43555 -0.87729,0.35319 -1.8685,0.52978 -2.97363,0.52978 -2.15333,0 -3.83952,-0.54118 -5.0586,-1.62353 -1.20768,-1.08236 -1.81152,-2.71728 -1.81152,-4.90479 0,-3.77115 1.06527,-6.8644 3.1958,-9.27978 2.13053,-2.42674 4.71679,-3.64012 7.75879,-3.64014 1.09374,2e-5 2.08495,0.13104 2.97363,0.39307 0.90005,0.26206 1.62352,0.59246 2.17041,0.99121 l 0.42725,-0.85449 5.99853,0 m -7.21191,4.44335 c -0.33042,-0.14809 -0.76906,-0.28481 -1.31592,-0.41015 -0.53549,-0.1367 -1.00831,-0.20506 -1.41845,-0.20508 -1.83433,2e-5 -3.30975,0.68931 -4.42627,2.06787 -1.11655,1.37859 -1.67482,3.15024 -1.67481,5.31494 -10e-6,0.97983 0.23925,1.74317 0.71777,2.29004 0.47851,0.54688 1.3387,0.82032 2.58057,0.82031 0.60383,1e-5 1.21337,-0.11392 1.82861,-0.34179 0.62662,-0.23925 1.21337,-0.51839 1.76026,-0.8374 l 1.94824,-8.69874"
          
         id="path3114" />
      <path
         d="m 394.24805,185.14893 c -3e-5,0.27345 -0.0228,0.62664 -0.0684,1.05957 -0.0456,0.43295 -0.11965,0.86589 -0.22217,1.29882 L 391.06934,200 l -6.22071,0 2.20459,-9.51904 c 0.15949,-0.72916 0.28482,-1.34439 0.37598,-1.84571 0.0911,-0.50129 0.1367,-0.95132 0.13672,-1.35009 -2e-5,-0.76334 -0.1937,-1.31021 -0.58106,-1.64063 -0.37599,-0.34178 -1.06528,-0.51268 -2.06787,-0.51269 -0.48992,10e-6 -1.05388,0.10825 -1.69189,0.3247 -0.63803,0.2051 -1.35011,0.51841 -2.13623,0.93994 L 377.94434,200 l -6.18653,0 6.13526,-26.5918 6.18652,0 -2.1875,9.51905 c 1.25324,-0.83169 2.40396,-1.48111 3.45215,-1.94825 1.04816,-0.4671 2.19888,-0.70066 3.45215,-0.70068 1.74314,2e-5 3.08754,0.42727 4.0332,1.28174 0.94562,0.84312 1.41843,2.0394 1.41846,3.58887"
          
         id="path3116" />
      <path
         d="m 422.771,200 -14.90235,0 1.04248,-4.51172 4.15283,0 3.79395,-16.42334 -4.15283,0 1.04248,-4.51172 14.90234,0 -1.04248,4.51172 -4.15283,0 -3.79395,16.42334 4.15284,0 L 422.771,200"
          
         id="path3118" />
      <path
         d="m 453.49854,190.94238 c -1.09377,0.0912 -2.11916,0.19939 -3.07618,0.32471 -0.95704,0.12533 -1.77165,0.30763 -2.44384,0.54687 -0.695,0.25066 -1.22478,0.60385 -1.58936,1.05958 -0.36459,0.45573 -0.54688,1.05957 -0.54687,1.81152 -10e-6,0.66081 0.23925,1.12793 0.71777,1.40137 0.4899,0.26204 1.19628,0.39307 2.11914,0.39306 0.60383,1e-5 1.24755,-0.13671 1.93115,-0.41015 0.69498,-0.28483 1.34439,-0.64372 1.94824,-1.07666 l 0.93995,-4.0503 m -1.62354,7.02393 c -0.38738,0.25065 -0.8545,0.55257 -1.40137,0.90576 -0.54688,0.35319 -1.05388,0.63233 -1.52099,0.8374 -0.63803,0.26205 -1.23618,0.46143 -1.79444,0.59815 -0.55827,0.13672 -1.33301,0.20507 -2.32422,0.20508 -1.59505,-1e-5 -2.89958,-0.44434 -3.91357,-1.33301 -1.0026,-0.90007 -1.50391,-2.06787 -1.50391,-3.50342 0,-1.51529 0.35889,-2.79703 1.07666,-3.84522 0.71778,-1.05956 1.78304,-1.90265 3.1958,-2.52929 1.32161,-0.59244 2.89388,-1.01968 4.7168,-1.28174 1.8343,-0.26203 3.81672,-0.45572 5.94727,-0.58106 0.0114,-0.0683 0.0342,-0.17658 0.0684,-0.3247 0.0342,-0.15949 0.0513,-0.33609 0.0513,-0.52979 -2e-5,-0.8089 -0.376,-1.37287 -1.12793,-1.69189 -0.75197,-0.33039 -1.8742,-0.49559 -3.3667,-0.49561 -1.01401,2e-5 -2.13624,0.17092 -3.3667,0.5127 -1.21908,0.34181 -2.13624,0.62664 -2.75147,0.85449 l -0.56396,0 0.90576,-4.5459 c 0.71777,-0.18227 1.82861,-0.38735 3.33252,-0.61523 1.5039,-0.22785 3.0021,-0.34178 4.49463,-0.3418 3.0078,2e-5 5.21238,0.39309 6.61377,1.1792 1.41274,0.78615 2.11912,2.00522 2.11914,3.65723 -2e-5,0.22788 -0.0228,0.5241 -0.0684,0.88867 -0.0342,0.3646 -0.0855,0.68361 -0.15381,0.95703 L 457.53174,200 l -6.11817,0 0.46143,-2.03369"
          
         id="path3120" />
      <path
         d="m 497.76123,185.08057 c -3e-5,0.3532 -0.0285,0.73487 -0.0855,1.14502 -0.0456,0.41017 -0.11966,0.83741 -0.22217,1.28173 L 494.56543,200 l -6.2207,0 2.22168,-9.5874 c 0.14808,-0.6608 0.2791,-1.29312 0.39306,-1.89698 0.1253,-0.60382 0.18796,-1.09373 0.18799,-1.46972 -3e-5,-0.6608 -0.18232,-1.14501 -0.54687,-1.45264 -0.36462,-0.3076 -1.01403,-0.46141 -1.94825,-0.46142 -0.44436,10e-6 -0.95136,0.10825 -1.52099,0.3247 -0.55829,0.2051 -1.23619,0.51841 -2.03369,0.93994 L 481.95312,200 l -6.2207,0 2.22168,-9.5874 c 0.12531,-0.55826 0.25064,-1.1621 0.37598,-1.81153 0.12531,-0.6494 0.18797,-1.145 0.18799,-1.48681 -2e-5,-0.69498 -0.17661,-1.19628 -0.52979,-1.50391 -0.34181,-0.31899 -0.98553,-0.4785 -1.93115,-0.47851 -0.48992,10e-6 -1.0254,0.11394 -1.60645,0.34179 -0.58106,0.22788 -1.23617,0.5355 -1.96533,0.92285 L 469.34082,200 l -6.18652,0 4.44336,-19.19189 6.18652,0 -0.49561,2.11914 c 1.25325,-0.83169 2.38118,-1.48111 3.38379,-1.94825 1.01399,-0.4671 2.10773,-0.70066 3.28125,-0.70068 1.26463,2e-5 2.3299,0.28485 3.1958,0.85449 0.86587,0.55829 1.46971,1.3843 1.81153,2.47803 1.52667,-1.10513 2.89385,-1.93683 4.10156,-2.49512 1.20765,-0.55825 2.37546,-0.83738 3.50342,-0.8374 1.68616,2e-5 2.9736,0.41587 3.8623,1.24756 0.88864,0.83172 1.33298,2.01662 1.33301,3.55469"
          
         id="path3122" />
      <path
         d="M 537.0166,173.4082 530.86426,200 l -6.18653,0 0.46143,-1.99951 c -0.59246,0.37598 -1.11655,0.71777 -1.57227,1.02539 -0.44434,0.29622 -0.93995,0.56966 -1.48681,0.82031 -0.51271,0.22787 -1.01971,0.39876 -1.521,0.5127 -0.48992,0.11393 -1.08236,0.17089 -1.77734,0.1709 -1.8571,-1e-5 -3.34392,-0.60385 -4.46045,-1.81153 -1.10515,-1.20768 -1.65772,-2.92236 -1.65772,-5.14404 0,-1.82291 0.29053,-3.53189 0.87159,-5.12695 0.59244,-1.60644 1.40136,-3.02489 2.42675,-4.25538 1.0026,-1.19627 2.1875,-2.1476 3.55469,-2.854 1.36718,-0.70636 2.79703,-1.05955 4.28955,-1.05957 1.04817,2e-5 1.95962,0.10826 2.73438,0.32471 0.77472,0.20509 1.57225,0.5298 2.39258,0.97412 l 1.89697,-8.16895 6.18652,0 m -8.93799,11.87744 c -0.33042,-0.15949 -0.76336,-0.3019 -1.29882,-0.42724 -0.5355,-0.13671 -1.00832,-0.20506 -1.41846,-0.20508 -0.97983,2e-5 -1.86281,0.21649 -2.64893,0.64941 -0.78614,0.43296 -1.45264,1.02541 -1.99951,1.77735 -0.48992,0.67221 -0.87729,1.5324 -1.16211,2.58056 -0.28484,1.0368 -0.42725,2.0394 -0.42724,3.00782 -1e-5,1.15072 0.26773,1.98812 0.80322,2.5122 0.53547,0.5241 1.35009,0.78614 2.44385,0.78614 0.55825,0 1.145,-0.12532 1.76025,-0.37598 0.62661,-0.25065 1.21906,-0.54687 1.77734,-0.88867 l 2.17041,-9.41651"
          
         id="path3124" />
      <path
         d="m 552.17529,187.93457 c 0.0342,-0.20507 0.057,-0.39305 0.0684,-0.56396 0.0228,-0.17089 0.0342,-0.34749 0.0342,-0.52979 -10e-6,-0.90005 -0.27915,-1.58934 -0.8374,-2.06787 -0.55828,-0.4785 -1.36151,-0.71776 -2.40967,-0.71777 -1.26466,1e-5 -2.32992,0.34181 -3.1958,1.02539 -0.8545,0.6836 -1.50391,1.63494 -1.94824,2.854 l 8.28857,0 m -4.6997,12.57813 c -3.26987,-1e-5 -5.79347,-0.72347 -7.5708,-2.17041 -1.77735,-1.44694 -2.66602,-3.44645 -2.66602,-5.99854 0,-1.74315 0.29053,-3.3439 0.87158,-4.80225 0.58105,-1.45832 1.41846,-2.74005 2.51221,-3.84521 1.04817,-1.07095 2.35839,-1.91974 3.93066,-2.54639 1.57226,-0.62661 3.29833,-0.93992 5.17823,-0.93994 2.85968,2e-5 5.013,0.58107 6.45996,1.74316 1.45831,1.15074 2.18747,2.85402 2.1875,5.10987 -3e-5,0.77475 -0.0798,1.5324 -0.23926,2.27295 -0.14814,0.74057 -0.34752,1.47543 -0.59815,2.20459 l -14.25293,0 c 0,0.0684 0,0.13672 0,0.20508 0,0.057 0,0.11963 0,0.18798 0,1.33302 0.46712,2.3755 1.40137,3.12745 0.93424,0.75195 2.36409,1.12793 4.28955,1.12792 1.34439,1e-5 2.61473,-0.22786 3.81104,-0.68359 1.20766,-0.45572 2.25584,-0.96272 3.14453,-1.521 l 0.68359,0 -1.14502,4.93897 c -1.1963,0.52409 -2.45526,0.91715 -3.77685,1.1792 -1.32163,0.27344 -2.72869,0.41015 -4.22119,0.41016"
          
         id="path3126" />
      <path
         d="m 569.79492,200.5127 c -1.31023,-1e-5 -2.5407,-0.16521 -3.6914,-0.49561 -1.13933,-0.31901 -2.13624,-0.82031 -2.99073,-1.50391 -0.83171,-0.67219 -1.48112,-1.51529 -1.94824,-2.52929 -0.46712,-1.014 -0.70068,-2.1875 -0.70068,-3.52051 0,-1.72037 0.3247,-3.31542 0.97412,-4.78516 0.6608,-1.4811 1.58365,-2.77423 2.76855,-3.87939 1.16211,-1.08234 2.58056,-1.93683 4.25537,-2.56348 1.6748,-0.638 3.48632,-0.95701 5.43457,-0.95703 1.17349,2e-5 2.3356,0.13104 3.48633,0.39307 1.16209,0.26206 2.23875,0.64373 3.22998,1.14502 l -1.29883,5.24658 -0.87158,0 c -0.67222,-0.80891 -1.43556,-1.40705 -2.29004,-1.79444 -0.84311,-0.39874 -1.79445,-0.59812 -2.854,-0.59814 -1.93686,2e-5 -3.49204,0.68931 -4.66553,2.06787 -1.17351,1.3672 -1.76026,3.07618 -1.76025,5.12695 -10e-6,1.42416 0.35888,2.48943 1.07666,3.19581 0.72916,0.70638 1.85708,1.05957 3.38379,1.05957 1.18488,0 2.26154,-0.23926 3.22998,-0.71778 0.9798,-0.4899 1.8172,-1.03108 2.51221,-1.62353 l 0.87158,0 -1.29883,5.24658 c -1.23049,0.53548 -2.31284,0.91715 -3.24707,1.14502 -0.92287,0.22786 -2.12485,0.34179 -3.60596,0.3418"
          
         id="path3128" />
      <path
         d="M 592.79785,173.4082 586.64551,200 l -6.18653,0 6.15235,-26.5918 6.18652,0"
          
         id="path3130" />
      <path
         d="m 606.14502,190.94238 c -1.09376,0.0912 -2.11915,0.19939 -3.07617,0.32471 -0.95704,0.12533 -1.77166,0.30763 -2.44385,0.54687 -0.695,0.25066 -1.22478,0.60385 -1.58936,1.05958 -0.36459,0.45573 -0.54688,1.05957 -0.54687,1.81152 -1e-5,0.66081 0.23925,1.12793 0.71777,1.40137 0.4899,0.26204 1.19628,0.39307 2.11914,0.39306 0.60383,1e-5 1.24755,-0.13671 1.93116,-0.41015 0.69497,-0.28483 1.34438,-0.64372 1.94824,-1.07666 l 0.93994,-4.0503 m -1.62354,7.02393 c -0.38738,0.25065 -0.8545,0.55257 -1.40136,0.90576 -0.54689,0.35319 -1.05389,0.63233 -1.521,0.8374 -0.63803,0.26205 -1.23617,0.46143 -1.79443,0.59815 -0.55828,0.13672 -1.33302,0.20507 -2.32422,0.20508 -1.59506,-1e-5 -2.89958,-0.44434 -3.91358,-1.33301 -1.0026,-0.90007 -1.5039,-2.06787 -1.5039,-3.50342 0,-1.51529 0.35888,-2.79703 1.07666,-3.84522 0.71777,-1.05956 1.78304,-1.90265 3.1958,-2.52929 1.32161,-0.59244 2.89387,-1.01968 4.7168,-1.28174 1.83429,-0.26203 3.81671,-0.45572 5.94726,-0.58106 0.0114,-0.0683 0.0342,-0.17658 0.0684,-0.3247 0.0342,-0.15949 0.0513,-0.33609 0.0513,-0.52979 -10e-6,-0.8089 -0.37599,-1.37287 -1.12793,-1.69189 -0.75197,-0.33039 -1.8742,-0.49559 -3.3667,-0.49561 -1.01401,2e-5 -2.13624,0.17092 -3.3667,0.5127 -1.21908,0.34181 -2.13623,0.62664 -2.75146,0.85449 l -0.56397,0 0.90576,-4.5459 c 0.71777,-0.18227 1.82861,-0.38735 3.33252,-0.61523 1.5039,-0.22785 3.00211,-0.34178 4.49463,-0.3418 3.0078,2e-5 5.21239,0.39309 6.61377,1.1792 1.41274,0.78615 2.11912,2.00522 2.11914,3.65723 -2e-5,0.22788 -0.0228,0.5241 -0.0684,0.88867 -0.0342,0.3646 -0.0855,0.68361 -0.1538,0.95703 L 610.17822,200 l -6.11816,0 0.46142,-2.03369"
          
         id="path3132" />
      <path
         d="m 632.82227,186.66992 -0.54688,0 c -0.27345,-0.0911 -0.66082,-0.15949 -1.16211,-0.20508 -0.50132,-0.0456 -0.99692,-0.0683 -1.48682,-0.0684 -0.80893,2e-5 -1.58936,0.0627 -2.3413,0.18799 -0.75197,0.11395 -1.52671,0.30194 -2.32422,0.56397 L 621.9873,200 l -6.18652,0 4.44336,-19.19189 6.18652,0 -0.64941,2.81982 c 1.1621,-0.85448 2.31851,-1.54946 3.46924,-2.08496 1.16209,-0.53546 2.3299,-0.8032 3.50342,-0.80322 0.21645,2e-5 0.45571,0.006 0.71777,0.0171 0.27342,0.0114 0.51268,0.0285 0.71777,0.0513 l -1.36718,5.86181"
          
         id="path3134" />
      <path
         d="m 648.76709,187.93457 c 0.0342,-0.20507 0.0569,-0.39305 0.0684,-0.56396 0.0228,-0.17089 0.0342,-0.34749 0.0342,-0.52979 -2e-5,-0.90005 -0.27915,-1.58934 -0.8374,-2.06787 -0.55829,-0.4785 -1.36151,-0.71776 -2.40967,-0.71777 -1.26466,1e-5 -2.32993,0.34181 -3.1958,1.02539 -0.8545,0.6836 -1.50392,1.63494 -1.94824,2.854 l 8.28857,0 m -4.69971,12.57813 c -3.26986,-1e-5 -5.79346,-0.72347 -7.5708,-2.17041 -1.77734,-1.44694 -2.66601,-3.44645 -2.66601,-5.99854 0,-1.74315 0.29052,-3.3439 0.87158,-4.80225 0.58105,-1.45832 1.41845,-2.74005 2.51221,-3.84521 1.04817,-1.07095 2.35839,-1.91974 3.93066,-2.54639 1.57225,-0.62661 3.29833,-0.93992 5.17822,-0.93994 2.85969,2e-5 5.013,0.58107 6.45996,1.74316 1.45831,1.15074 2.18748,2.85402 2.1875,5.10987 -2e-5,0.77475 -0.0798,1.5324 -0.23925,2.27295 -0.14814,0.74057 -0.34752,1.47543 -0.59815,2.20459 l -14.25293,0 c -10e-6,0.0684 -10e-6,0.13672 0,0.20508 -10e-6,0.057 -10e-6,0.11963 0,0.18798 -10e-6,1.33302 0.46712,2.3755 1.40137,3.12745 0.93423,0.75195 2.36408,1.12793 4.28955,1.12792 1.34439,1e-5 2.61473,-0.22786 3.81103,-0.68359 1.20767,-0.45572 2.25584,-0.96272 3.14454,-1.521 l 0.68359,0 -1.14502,4.93897 c -1.19631,0.52409 -2.45526,0.91715 -3.77686,1.1792 -1.32162,0.27344 -2.72869,0.41015 -4.22119,0.41016"
          
         id="path3136" />
      <path
         d="M 681.32324,173.4082 675.1709,200 l -6.18653,0 0.46143,-1.99951 c -0.59246,0.37598 -1.11655,0.71777 -1.57226,1.02539 -0.44435,0.29622 -0.93996,0.56966 -1.48682,0.82031 -0.51271,0.22787 -1.0197,0.39876 -1.521,0.5127 -0.48991,0.11393 -1.08236,0.17089 -1.77734,0.1709 -1.8571,-1e-5 -3.34392,-0.60385 -4.46045,-1.81153 -1.10515,-1.20768 -1.65772,-2.92236 -1.65772,-5.14404 0,-1.82291 0.29053,-3.53189 0.87159,-5.12695 0.59244,-1.60644 1.40136,-3.02489 2.42675,-4.25538 1.0026,-1.19627 2.1875,-2.1476 3.55469,-2.854 1.36718,-0.70636 2.79703,-1.05955 4.28955,-1.05957 1.04817,2e-5 1.95962,0.10826 2.73438,0.32471 0.77472,0.20509 1.57225,0.5298 2.39258,0.97412 l 1.89697,-8.16895 6.18652,0 m -8.93799,11.87744 c -0.33042,-0.15949 -0.76336,-0.3019 -1.29882,-0.42724 -0.5355,-0.13671 -1.00832,-0.20506 -1.41846,-0.20508 -0.97983,2e-5 -1.86281,0.21649 -2.64893,0.64941 -0.78614,0.43296 -1.45264,1.02541 -1.99951,1.77735 -0.48992,0.67221 -0.87729,1.5324 -1.16211,2.58056 -0.28484,1.0368 -0.42725,2.0394 -0.42724,3.00782 -10e-6,1.15072 0.26773,1.98812 0.80322,2.5122 0.53547,0.5241 1.35009,0.78614 2.44385,0.78614 0.55825,0 1.145,-0.12532 1.76025,-0.37598 0.62661,-0.25065 1.21906,-0.54687 1.77734,-0.88867 l 2.17041,-9.41651"
          
         id="path3138" />
      <path
         d="m 706.6333,190.94238 c -1.09376,0.0912 -2.11915,0.19939 -3.07617,0.32471 -0.95704,0.12533 -1.77166,0.30763 -2.44385,0.54687 -0.69499,0.25066 -1.22478,0.60385 -1.58935,1.05958 -0.36459,0.45573 -0.54689,1.05957 -0.54688,1.81152 -10e-6,0.66081 0.23925,1.12793 0.71777,1.40137 0.48991,0.26204 1.19628,0.39307 2.11914,0.39306 0.60384,1e-5 1.24755,-0.13671 1.93116,-0.41015 0.69497,-0.28483 1.34439,-0.64372 1.94824,-1.07666 l 0.93994,-4.0503 m -1.62353,7.02393 c -0.38739,0.25065 -0.85451,0.55257 -1.40137,0.90576 -0.54689,0.35319 -1.05389,0.63233 -1.521,0.8374 -0.63803,0.26205 -1.23617,0.46143 -1.79443,0.59815 -0.55828,0.13672 -1.33302,0.20507 -2.32422,0.20508 -1.59506,-1e-5 -2.89958,-0.44434 -3.91357,-1.33301 -1.00261,-0.90007 -1.50391,-2.06787 -1.50391,-3.50342 0,-1.51529 0.35889,-2.79703 1.07666,-3.84522 0.71777,-1.05956 1.78304,-1.90265 3.1958,-2.52929 1.32161,-0.59244 2.89387,-1.01968 4.7168,-1.28174 1.8343,-0.26203 3.81672,-0.45572 5.94726,-0.58106 0.0114,-0.0683 0.0342,-0.17658 0.0684,-0.3247 0.0342,-0.15949 0.0513,-0.33609 0.0513,-0.52979 -1e-5,-0.8089 -0.37599,-1.37287 -1.12793,-1.69189 -0.75196,-0.33039 -1.8742,-0.49559 -3.3667,-0.49561 -1.014,2e-5 -2.13624,0.17092 -3.3667,0.5127 -1.21908,0.34181 -2.13623,0.62664 -2.75146,0.85449 l -0.56397,0 0.90577,-4.5459 c 0.71776,-0.18227 1.8286,-0.38735 3.33252,-0.61523 1.50389,-0.22785 3.0021,-0.34178 4.49462,-0.3418 3.0078,2e-5 5.21239,0.39309 6.61377,1.1792 1.41274,0.78615 2.11912,2.00522 2.11914,3.65723 -2e-5,0.22788 -0.0228,0.5241 -0.0684,0.88867 -0.0342,0.3646 -0.0855,0.68361 -0.1538,0.95703 L 710.6665,200 l -6.11816,0 0.46143,-2.03369"
          
         id="path3140" />
      <path
         d="m 723.68896,200.52979 c -1.64063,-1e-5 -3.22998,-0.15381 -4.76806,-0.46143 -1.53809,-0.30762 -2.71729,-0.6665 -3.5376,-1.07666 l 1.1792,-5.05859 0.56396,0 c 0.25065,0.21647 0.56397,0.45573 0.93995,0.71777 0.38736,0.26205 0.93424,0.53549 1.64062,0.82031 0.60384,0.26205 1.30452,0.48991 2.10205,0.6836 0.79752,0.18229 1.65771,0.27344 2.58057,0.27343 1.37857,1e-5 2.40966,-0.1595 3.09326,-0.47851 0.69497,-0.31901 1.04247,-0.77474 1.04248,-1.36719 -10e-6,-0.45572 -0.24497,-0.80322 -0.73486,-1.04248 -0.48992,-0.23925 -1.50392,-0.53548 -3.04199,-0.88867 -2.60906,-0.60384 -4.3978,-1.333 -5.36622,-2.1875 -0.95703,-0.85448 -1.43554,-1.91975 -1.43554,-3.1958 0,-2.1647 0.96842,-3.86799 2.90527,-5.10987 1.93684,-1.25323 4.55728,-1.87986 7.86133,-1.87988 1.43553,2e-5 2.87108,0.14813 4.30664,0.44434 1.43553,0.28485 2.4894,0.59246 3.16162,0.92285 l -1.12793,4.85351 -0.52978,0 c -0.80894,-0.62661 -1.78876,-1.13361 -2.93946,-1.52099 -1.13934,-0.39875 -2.31284,-0.59813 -3.52051,-0.59815 -1.31023,2e-5 -2.31853,0.15952 -3.0249,0.47852 -0.69499,0.30763 -1.04249,0.78615 -1.04248,1.43555 -10e-6,0.50131 0.30191,0.88868 0.90576,1.1621 0.60383,0.26206 1.55517,0.5355 2.85401,0.82032 2.41535,0.5241 4.15281,1.1849 5.2124,1.98242 1.07095,0.79753 1.60643,1.91407 1.60645,3.34961 -2e-5,2.14193 -0.97984,3.83382 -2.93946,5.07568 -1.95965,1.23047 -4.60857,1.8457 -7.94678,1.84571"
          
         id="path3142" />
      <path
         d="M 784.08447,180.80811 774.05273,200 l -6.52832,0 -1.28173,-12.93701 -6.47706,12.93701 -6.61376,0 -1.81153,-19.19189 6.28906,0 0.56397,13.22753 6.81885,-13.22753 5.45166,0 1.1792,13.22753 5.94726,-13.22753 6.49414,0"
          
         id="path3144" />
      <path
         d="m 805.83984,185.14893 c -2e-5,0.27345 -0.0228,0.62664 -0.0684,1.05957 -0.0456,0.43295 -0.11965,0.86589 -0.22216,1.29882 L 802.66113,200 l -6.2207,0 2.20459,-9.51904 c 0.15949,-0.72916 0.28481,-1.34439 0.37598,-1.84571 0.0911,-0.50129 0.1367,-0.95132 0.13671,-1.35009 -10e-6,-0.76334 -0.1937,-1.31021 -0.58105,-1.64063 -0.37599,-0.34178 -1.06528,-0.51268 -2.06787,-0.51269 -0.48992,10e-6 -1.05389,0.10825 -1.6919,0.3247 -0.63803,0.2051 -1.3501,0.51841 -2.13623,0.93994 L 789.53613,200 l -6.18652,0 6.13525,-26.5918 6.18653,0 -2.1875,9.51905 c 1.25324,-0.83169 2.40395,-1.48111 3.45215,-1.94825 1.04816,-0.4671 2.19887,-0.70066 3.45214,-0.70068 1.74315,2e-5 3.08755,0.42727 4.03321,1.28174 0.94561,0.84312 1.41843,2.0394 1.41845,3.58887"
          
         id="path3146" />
      <path
         d="M 818.93066,180.80811 814.4873,200 l -6.18652,0 4.44336,-19.19189 6.18652,0 m 1.87989,-7.39991 -1.07666,4.66553 -6.52832,0 1.07666,-4.66553 6.52832,0"
          
         id="path3148" />
      <path
         d="m 827.62939,200.37598 c -2.13054,0 -3.65153,-0.3475 -4.56298,-1.04248 -0.91146,-0.70638 -1.36719,-1.74886 -1.36719,-3.12745 0,-0.36457 0.0285,-0.71776 0.0855,-1.05957 0.057,-0.34179 0.13102,-0.74055 0.22217,-1.19628 l 2.08496,-9.0918 -2.5293,0 0.93994,-4.05029 2.5293,0 1.26465,-5.48584 6.16943,0 -1.26465,5.48584 5.77637,0 -0.93994,4.05029 -5.77637,0 -1.58936,6.92139 c -0.11394,0.47852 -0.22217,0.96273 -0.3247,1.45263 -0.10255,0.47852 -0.15382,0.88868 -0.15381,1.23047 -10e-6,0.6836 0.18798,1.16211 0.56396,1.43555 0.38736,0.26205 0.97981,0.39307 1.77735,0.39306 0.319,10e-6 0.73485,-0.057 1.24756,-0.17089 0.52407,-0.12533 0.93992,-0.26204 1.24756,-0.41016 l 0.51269,0 -0.95703,4.11865 c -0.695,0.1709 -1.42986,0.30192 -2.20459,0.39307 -0.76336,0.10254 -1.68051,0.15381 -2.75147,0.15381"
          
         id="path3150" />
      <path
         d="m 851.72607,187.93457 c 0.0342,-0.20507 0.0569,-0.39305 0.0684,-0.56396 0.0228,-0.17089 0.0342,-0.34749 0.0342,-0.52979 -10e-6,-0.90005 -0.27915,-1.58934 -0.8374,-2.06787 -0.55828,-0.4785 -1.3615,-0.71776 -2.40967,-0.71777 -1.26466,1e-5 -2.32992,0.34181 -3.1958,1.02539 -0.8545,0.6836 -1.50391,1.63494 -1.94824,2.854 l 8.28857,0 m -4.6997,12.57813 c -3.26987,-1e-5 -5.79347,-0.72347 -7.5708,-2.17041 -1.77735,-1.44694 -2.66602,-3.44645 -2.66602,-5.99854 0,-1.74315 0.29053,-3.3439 0.87158,-4.80225 0.58105,-1.45832 1.41846,-2.74005 2.51221,-3.84521 1.04817,-1.07095 2.35839,-1.91974 3.93066,-2.54639 1.57226,-0.62661 3.29833,-0.93992 5.17823,-0.93994 2.85968,2e-5 5.013,0.58107 6.45996,1.74316 1.45831,1.15074 2.18748,2.85402 2.1875,5.10987 -2e-5,0.77475 -0.0798,1.5324 -0.23926,2.27295 -0.14813,0.74057 -0.34752,1.47543 -0.59814,2.20459 l -14.25293,0 c -1e-5,0.0684 -1e-5,0.13672 0,0.20508 -1e-5,0.057 -1e-5,0.11963 0,0.18798 -1e-5,1.33302 0.46711,2.3755 1.40136,3.12745 0.93424,0.75195 2.36409,1.12793 4.28955,1.12792 1.34439,1e-5 2.61473,-0.22786 3.81104,-0.68359 1.20766,-0.45572 2.25584,-0.96272 3.14453,-1.521 l 0.68359,0 -1.14502,4.93897 c -1.1963,0.52409 -2.45525,0.91715 -3.77685,1.1792 -1.32163,0.27344 -2.72869,0.41015 -4.22119,0.41016"
          
         id="path3152" />
      <path
         d="m 868.73047,193.28369 -9.19434,13.03955 -3.81103,0 6.34033,-13.03955 6.66504,0"
          
         id="path3154" />
      <path
         d="m 898.14209,200 -14.90234,0 1.04248,-4.51172 4.15283,0 3.79394,-16.42334 -4.15283,0 1.04248,-4.51172 14.90235,0 -1.04248,4.51172 -4.15284,0 -3.79394,16.42334 4.15283,0 L 898.14209,200"
          
         id="path3156" />
      <path
         d="m 928.86963,190.94238 c -1.09376,0.0912 -2.11915,0.19939 -3.07617,0.32471 -0.95704,0.12533 -1.77166,0.30763 -2.44385,0.54687 -0.695,0.25066 -1.22478,0.60385 -1.58936,1.05958 -0.36459,0.45573 -0.54688,1.05957 -0.54687,1.81152 -10e-6,0.66081 0.23925,1.12793 0.71777,1.40137 0.4899,0.26204 1.19628,0.39307 2.11914,0.39306 0.60383,1e-5 1.24755,-0.13671 1.93116,-0.41015 0.69497,-0.28483 1.34438,-0.64372 1.94824,-1.07666 l 0.93994,-4.0503 m -1.62354,7.02393 c -0.38738,0.25065 -0.8545,0.55257 -1.40136,0.90576 -0.54689,0.35319 -1.05389,0.63233 -1.521,0.8374 -0.63803,0.26205 -1.23617,0.46143 -1.79443,0.59815 -0.55828,0.13672 -1.33302,0.20507 -2.32422,0.20508 -1.59506,-1e-5 -2.89958,-0.44434 -3.91358,-1.33301 -1.0026,-0.90007 -1.5039,-2.06787 -1.5039,-3.50342 0,-1.51529 0.35888,-2.79703 1.07666,-3.84522 0.71777,-1.05956 1.78303,-1.90265 3.1958,-2.52929 1.32161,-0.59244 2.89387,-1.01968 4.7168,-1.28174 1.83429,-0.26203 3.81671,-0.45572 5.94726,-0.58106 0.0114,-0.0683 0.0342,-0.17658 0.0684,-0.3247 0.0342,-0.15949 0.0513,-0.33609 0.0513,-0.52979 -2e-5,-0.8089 -0.37599,-1.37287 -1.12793,-1.69189 -0.75197,-0.33039 -1.8742,-0.49559 -3.3667,-0.49561 -1.01401,2e-5 -2.13624,0.17092 -3.3667,0.5127 -1.21908,0.34181 -2.13623,0.62664 -2.75146,0.85449 l -0.56397,0 0.90576,-4.5459 c 0.71777,-0.18227 1.82861,-0.38735 3.33252,-0.61523 1.5039,-0.22785 3.00211,-0.34178 4.49463,-0.3418 3.0078,2e-5 5.21239,0.39309 6.61377,1.1792 1.41274,0.78615 2.11912,2.00522 2.11914,3.65723 -2e-5,0.22788 -0.0228,0.5241 -0.0684,0.88867 -0.0342,0.3646 -0.0855,0.68361 -0.15381,0.95703 L 932.90283,200 l -6.11816,0 0.46142,-2.03369"
          
         id="path3158" />
      <path
         d="m 973.13232,185.08057 c -3e-5,0.3532 -0.0285,0.73487 -0.0855,1.14502 -0.0456,0.41017 -0.11966,0.83741 -0.22216,1.28173 L 969.93652,200 l -6.2207,0 2.22168,-9.5874 c 0.14808,-0.6608 0.27911,-1.29312 0.39307,-1.89698 0.12529,-0.60382 0.18796,-1.09373 0.18798,-1.46972 -2e-5,-0.6608 -0.18232,-1.14501 -0.54687,-1.45264 -0.36461,-0.3076 -1.01402,-0.46141 -1.94824,-0.46142 -0.44436,10e-6 -0.95136,0.10825 -1.521,0.3247 -0.55829,0.2051 -1.23619,0.51841 -2.03369,0.93994 L 957.32422,200 l -6.2207,0 2.22168,-9.5874 c 0.12531,-0.55826 0.25063,-1.1621 0.37597,-1.81153 0.12531,-0.6494 0.18797,-1.145 0.18799,-1.48681 -2e-5,-0.69498 -0.17661,-1.19628 -0.52979,-1.50391 -0.34181,-0.31899 -0.98552,-0.4785 -1.93115,-0.47851 -0.48992,10e-6 -1.0254,0.11394 -1.60644,0.34179 -0.58107,0.22788 -1.23618,0.5355 -1.96533,0.92285 L 944.71191,200 l -6.18652,0 4.44336,-19.19189 6.18652,0 -0.4956,2.11914 c 1.25324,-0.83169 2.38117,-1.48111 3.38379,-1.94825 1.01398,-0.4671 2.10773,-0.70066 3.28125,-0.70068 1.26463,2e-5 2.32989,0.28485 3.1958,0.85449 0.86586,0.55829 1.4697,1.3843 1.81152,2.47803 1.52667,-1.10513 2.89386,-1.93683 4.10156,-2.49512 1.20766,-0.55825 2.37546,-0.83738 3.50342,-0.8374 1.68617,2e-5 2.9736,0.41587 3.86231,1.24756 0.88863,0.83172 1.33297,2.01662 1.333,3.55469"
          
         id="path3160" />
      <path
         d="m 1010.6616,180.80811 -3.8623,16.9873 c -0.4216,1.82292 -1.0197,3.33822 -1.7944,4.5459 -0.7748,1.20768 -1.7147,2.1704 -2.8198,2.88818 -1.1394,0.74056 -2.37554,1.25895 -3.70854,1.55518 -1.33302,0.29621 -2.83122,0.44433 -4.49463,0.44433 -1.37858,0 -2.7002,-0.0855 -3.96484,-0.25634 -1.26465,-0.15952 -2.32992,-0.3475 -3.1958,-0.56397 l 0.93994,-4.7168 0.75195,0 c 0.94564,0.36459 1.90267,0.65511 2.8711,0.87159 0.96842,0.21647 1.8286,0.3247 2.58056,0.3247 1.08235,0 2.02229,-0.10254 2.81983,-0.30761 0.79751,-0.19369 1.42414,-0.47852 1.87988,-0.8545 0.4899,-0.39876 0.87727,-0.88867 1.16211,-1.46972 0.29624,-0.58106 0.53544,-1.29313 0.71774,-2.13623 l 0.086,-0.35889 c -0.8887,0.60384 -1.77168,1.08236 -2.64894,1.43555 -0.87729,0.35319 -1.8685,0.52978 -2.97364,0.52978 -2.15332,0 -3.83952,-0.54118 -5.05859,-1.62353 -1.20768,-1.08236 -1.81152,-2.71728 -1.81152,-4.90479 0,-3.77115 1.06526,-6.8644 3.1958,-9.27978 2.13053,-2.42674 4.71679,-3.64012 7.75879,-3.64014 1.0937,2e-5 2.0849,0.13104 2.9736,0.39307 0.9001,0.26206 1.6235,0.59246 2.1704,0.99121 l 0.4273,-0.85449 5.9985,0 m -7.2119,4.44335 c -0.3304,-0.14809 -0.7691,-0.28481 -1.3159,-0.41015 -0.5355,-0.1367 -1.0083,-0.20506 -1.4185,-0.20508 -1.83429,2e-5 -3.30971,0.68931 -4.42624,2.06787 -1.11654,1.37859 -1.67481,3.15024 -1.6748,5.31494 -10e-6,0.97983 0.23925,1.74317 0.71777,2.29004 0.47851,0.54688 1.3387,0.82032 2.58057,0.82031 0.60383,1e-5 1.21336,-0.11392 1.82861,-0.34179 0.62659,-0.23925 1.21339,-0.51839 1.76029,-0.8374 l 1.9482,-8.69874"
          
         id="path3162" />
      <path
         d="m 1029.0332,186.66992 -0.5469,0 c -0.2734,-0.0911 -0.6608,-0.15949 -1.1621,-0.20508 -0.5013,-0.0456 -0.9969,-0.0683 -1.4868,-0.0684 -0.8089,2e-5 -1.5894,0.0627 -2.3413,0.18799 -0.752,0.11395 -1.5267,0.30194 -2.3242,0.56397 L 1018.1982,200 l -6.1865,0 4.4434,-19.19189 6.1865,0 -0.6494,2.81982 c 1.1621,-0.85448 2.3185,-1.54946 3.4692,-2.08496 1.1621,-0.53546 2.3299,-0.8032 3.5034,-0.80322 0.2165,2e-5 0.4558,0.006 0.7178,0.0171 0.2734,0.0114 0.5127,0.0285 0.7178,0.0513 l -1.3672,5.86181"
          
         id="path3164" />
      <path
         d="m 1044.978,187.93457 c 0.034,-0.20507 0.057,-0.39305 0.068,-0.56396 0.023,-0.17089 0.034,-0.34749 0.034,-0.52979 0,-0.90005 -0.2792,-1.58934 -0.8374,-2.06787 -0.5583,-0.4785 -1.3615,-0.71776 -2.4097,-0.71777 -1.2647,1e-5 -2.3299,0.34181 -3.1958,1.02539 -0.8545,0.6836 -1.5039,1.63494 -1.9482,2.854 l 8.2885,0 m -4.6997,12.57813 c -3.2698,-1e-5 -5.7934,-0.72347 -7.5708,-2.17041 -1.7773,-1.44694 -2.666,-3.44645 -2.666,-5.99854 0,-1.74315 0.2905,-3.3439 0.8716,-4.80225 0.581,-1.45832 1.4184,-2.74005 2.5122,-3.84521 1.0482,-1.07095 2.3584,-1.91974 3.9307,-2.54639 1.5722,-0.62661 3.2983,-0.93992 5.1782,-0.93994 2.8597,2e-5 5.013,0.58107 6.4599,1.74316 1.4584,1.15074 2.1875,2.85402 2.1875,5.10987 0,0.77475 -0.08,1.5324 -0.2392,2.27295 -0.1482,0.74057 -0.3475,1.47543 -0.5982,2.20459 l -14.2529,0 c 0,0.0684 0,0.13672 0,0.20508 0,0.057 0,0.11963 0,0.18798 0,1.33302 0.4671,2.3755 1.4014,3.12745 0.9342,0.75195 2.3641,1.12793 4.2895,1.12792 1.3444,1e-5 2.6148,-0.22786 3.8111,-0.68359 1.2076,-0.45572 2.2558,-0.96272 3.1445,-1.521 l 0.6836,0 -1.145,4.93897 c -1.1963,0.52409 -2.4553,0.91715 -3.7769,1.1792 -1.3216,0.27344 -2.7287,0.41015 -4.2212,0.41016"
          
         id="path3166" />
      <path
         d="m 1068.2202,187.93457 c 0.034,-0.20507 0.057,-0.39305 0.068,-0.56396 0.023,-0.17089 0.034,-0.34749 0.034,-0.52979 -10e-5,-0.90005 -0.2792,-1.58934 -0.8374,-2.06787 -0.5583,-0.4785 -1.3616,-0.71776 -2.4097,-0.71777 -1.2647,1e-5 -2.3299,0.34181 -3.1958,1.02539 -0.8545,0.6836 -1.5039,1.63494 -1.9483,2.854 l 8.2886,0 m -4.6997,12.57813 c -3.2699,-1e-5 -5.7935,-0.72347 -7.5708,-2.17041 -1.7773,-1.44694 -2.666,-3.44645 -2.666,-5.99854 0,-1.74315 0.2905,-3.3439 0.8716,-4.80225 0.581,-1.45832 1.4184,-2.74005 2.5122,-3.84521 1.0482,-1.07095 2.3584,-1.91974 3.9306,-2.54639 1.5723,-0.62661 3.2984,-0.93992 5.1783,-0.93994 2.8597,2e-5 5.013,0.58107 6.4599,1.74316 1.4583,1.15074 2.1875,2.85402 2.1875,5.10987 0,0.77475 -0.08,1.5324 -0.2392,2.27295 -0.1482,0.74057 -0.3475,1.47543 -0.5982,2.20459 l -14.2529,0 c 0,0.0684 0,0.13672 0,0.20508 0,0.057 0,0.11963 0,0.18798 0,1.33302 0.4671,2.3755 1.4014,3.12745 0.9342,0.75195 2.364,1.12793 4.2895,1.12792 1.3444,1e-5 2.6147,-0.22786 3.811,-0.68359 1.2077,-0.45572 2.2559,-0.96272 3.1446,-1.521 l 0.6836,0 -1.145,4.93897 c -1.1964,0.52409 -2.4553,0.91715 -3.7769,1.1792 -1.3216,0.27344 -2.7287,0.41015 -4.2212,0.41016"
          
         id="path3168" />
      <path
         d="m 1098.4009,185.14893 c 0,0.34181 -0.023,0.71209 -0.068,1.11084 -0.046,0.39877 -0.1196,0.81462 -0.2221,1.24755 L 1095.2393,200 l -6.2207,0 2.1875,-9.51904 c 0.1594,-0.70637 0.2848,-1.31021 0.3759,-1.81153 0.091,-0.50129 0.1367,-0.96841 0.1368,-1.40136 -1e-4,-0.74055 -0.1881,-1.28173 -0.564,-1.62354 -0.376,-0.34178 -1.0653,-0.51268 -2.0679,-0.51269 -0.4899,10e-6 -1.0539,0.10825 -1.6919,0.3247 -0.638,0.2051 -1.3558,0.51841 -2.1533,0.93994 L 1082.1143,200 l -6.1866,0 4.4263,-19.19189 6.1865,0 -0.4956,2.11914 c 1.2647,-0.83169 2.4154,-1.48111 3.4522,-1.94825 1.0481,-0.4671 2.1988,-0.70066 3.4521,-0.70068 1.7204,2e-5 3.0591,0.41587 4.0161,1.24756 0.957,0.83172 1.4356,2.0394 1.4356,3.62305"
          
         id="path3170" />
      <path
         d="m 1107.5269,200 -6.4258,0 1.5381,-6.71631 6.4257,0 -1.538,6.71631"
          
         id="path3172" />
    </g>
</svg>
